<?xml version="1.0" standalone="no"?>
<!DOCTYPE svg PUBLIC "-//W3C//DTD SVG 20010904//EN"
 "http://www.w3.org/TR/2001/REC-SVG-20010904/DTD/svg10.dtd">
<svg version="1.0" xmlns="http://www.w3.org/2000/svg"
 width="512.000000pt" height="512.000000pt" viewBox="0 0 512.000000 512.000000"
 preserveAspectRatio="xMidYMid meet">
<metadata>
Created by potrace 1.11, written by Peter Selinger 2001-2013
</metadata>
<g transform="translate(0.000000,512.000000) scale(0.100000,-0.100000)"
fill="#000000" stroke="none">
<path d="M985 5104 c-96 -18 -101 -19 -175 -44 -382 -127 -675 -467 -745 -865
-16 -93 -21 -222 -11 -290 36 -249 220 -607 537 -1046 l40 -56 -15 -59 c-8
-33 -17 -70 -20 -84 -2 -14 -13 -65 -25 -115 -11 -49 -22 -102 -25 -118 -2
-15 -7 -35 -10 -45 -3 -9 -14 -57 -25 -107 -10 -49 -37 -171 -59 -270 -23 -99
-43 -191 -46 -205 -3 -14 -7 -34 -10 -45 -13 -56 -25 -113 -30 -135 -2 -14
-11 -54 -20 -90 -8 -36 -17 -76 -20 -90 -2 -14 -11 -55 -20 -91 -8 -37 -17
-78 -20 -90 -2 -13 -11 -53 -20 -89 -8 -36 -17 -76 -20 -90 -3 -14 -7 -34 -10
-45 -2 -11 -16 -74 -30 -140 -15 -66 -31 -138 -37 -160 -21 -73 -23 -149 -5
-183 26 -50 82 -86 135 -88 57 -2 73 6 246 126 77 53 178 123 225 155 47 33
247 171 445 309 439 303 451 312 595 411 63 43 131 91 151 105 20 14 45 31 55
38 11 7 350 242 754 522 404 280 802 555 884 612 295 204 306 214 306 299 0
51 -26 98 -73 133 -28 21 -34 21 -975 26 -521 3 -942 8 -935 13 6 4 26 33 44
65 246 434 302 660 238 957 -72 336 -313 637 -622 779 -72 33 -152 62 -198 72
-13 2 -46 9 -74 15 -75 16 -300 18 -380 3z"/>
<path d="M4263 2773 c-111 -75 -179 -121 -403 -278 -25 -17 -81 -56 -125 -87
-414 -285 -879 -607 -917 -636 -115 -87 -97 -226 40 -294 26 -13 92 -48 147
-77 177 -95 238 -127 350 -186 61 -32 142 -74 180 -95 39 -21 115 -61 170 -90
55 -29 132 -69 170 -90 39 -21 111 -59 160 -85 133 -70 251 -133 330 -175 78
-42 175 -93 375 -198 118 -61 141 -70 182 -68 53 2 91 25 126 76 27 40 29 96
6 190 -9 36 -18 76 -20 90 -3 14 -43 196 -90 405 -47 209 -89 398 -93 420 -5
22 -25 114 -46 205 -20 91 -38 172 -40 180 -7 34 -78 351 -95 430 -11 47 -33
146 -50 220 -16 74 -38 146 -48 160 -34 45 -81 70 -133 70 -44 0 -59 -7 -176
-87z"/>
<path d="M2247 1371 c-20 -9 -133 -83 -252 -166 -118 -82 -253 -176 -298 -207
-45 -31 -125 -87 -177 -123 -52 -37 -169 -118 -260 -180 -91 -62 -208 -143
-260 -180 -52 -36 -151 -105 -219 -153 -69 -48 -133 -99 -144 -113 -10 -15
-22 -47 -24 -73 -7 -57 15 -106 64 -143 l36 -28 1819 -2 c1659 -3 1822 -2
1851 13 75 38 104 92 92 170 -8 56 -55 106 -141 149 -32 16 -97 50 -144 76
-47 25 -143 76 -215 114 -71 37 -157 82 -190 100 -33 18 -103 55 -155 82 -52
28 -129 68 -170 90 -41 22 -120 64 -175 93 -101 53 -203 107 -350 185 -44 23
-125 66 -180 95 -55 29 -122 65 -150 80 -150 82 -256 131 -287 134 -20 2 -52
-4 -71 -13z"/>
</g>
</svg>
